# xmcd CD database file
#
# Track frame offsets:
#	150
#	19287
#	34300
#	55375
#	70637
#	84900
#	98175
#	118225
#	128275
#	135675
#	152862
#	186450
#	190200
#	237375
#
# Disc length: 3322 seconds
#
# Revision: 0
# Processed by: cddbd v1.5.1PL0 Copyright (c) Steve Scherf et al.
# Submitted via: CDex 1.50beta8
#
DISCID=c20cf80e
DTITLE=Jo Bohnsack - Bootleg Boogie Live
DYEAR=1991
DGENRE=Blues
TTITLE0=Turn around Boogie
TTITLE1=Take your ticket in your hand
TTITLE2=Shim Sham Shimmy
TTITLE3=G-Runner
TTITLE4=All by myself
TTITLE5=Blues for Jan
TTITLE6=Hi heel
TTITLE7=Dance the night away
TTITLE8=I don't know why
TTITLE9=Jack Dupree was my teacher
TTITLE10=My grandmother told me
TTITLE11=Ansage
TTITLE12=Nobody loves me
TTITLE13=Pinetops
EXTD=YEAR: 1991
EXTT0=
EXTT1=
EXTT2=
EXTT3=
EXTT4=
EXTT5=
EXTT6=
EXTT7=
EXTT8=
EXTT9=
EXTT10=
EXTT11=
EXTT12=
EXTT13=
PLAYORDER=
